@startuml

object gameflix {
	juegos
	usuarios
	--
	agregarJuego(unJuego)
	juegosDeCategoria(unaCategoria)
	juegoQueSeLlama(unNombre)
	juegoAlAzar()
	cobrar()
}

rectangle Herencia #lightblue;line.dotted {
	abstract class Juego {
		nombre
		precio
		categoria

		esDeCategoria(unaCategoria)
		seLlama(unNombre)
		esBarato()
		{abstract} afectarA()
	}

	class JuegoViolento extends Juego {
		afectarA(unUsuario, unasHoras)
	}

	class JuegoMOBA extends Juego {
		afectarA(unUsuario, unasHoras)
	}

	class JuegoDeTerror extends Juego {
		afectarA(unUsuario, unasHoras)
	}

	class JuegoDeEstrategia extends Juego {
		afectarA(unUsuario, unasHoras)
	}
}

rectangle Composicion #lightgreen;line.dotted {
	class Usuario {
		suscripcion
		plataEnCuenta
		humor

		actualizarSuscripcion(unaSuscripcion)
		pagarSuscripcion()
		puedeJugar(unJuego)
		jugar(unJuego, unasHoras)
		aumentarHumor(unaCantidad)
		reducuirHumor(unaCantidad)
		comprarSkins()
		tirarTodoAlCarajo()
	}

	object premium {
		--
		permiteJugar(unJuego)
	}

	object base {
		--
		permiteJugar(unJuego)
	}

	interface Suscripcion {
		permiteJugar(unJuego)
		costo()
	}

	abstract class SuscripcionCategorica implements Suscripcion {
		permiteJugar(unJuego)
		{abstract} categoria()
	}

	object prueba {
		--
		categoria()
	}

	object infantil {
		--
		categoria()
	}
}

SuscripcionCategorica <|-- prueba
SuscripcionCategorica <|-- infantil
Suscripcion <|.. premium
Suscripcion <|.. base
Suscripcion <-r- Usuario : suscripcion
Juego "*" <-d- gameflix : juegos
Usuario "*" <-d- gameflix : usuarios

@enduml
